<svg width="420" height="420" viewBox="0 0 420 420" fill="none" xmlns="http://www.w3.org/2000/svg">
  <defs>
    <filter id="shadow" x="36" y="46" width="342" height="326" filterUnits="userSpaceOnUse" color-interpolation-filters="sRGB">
      <feDropShadow dx="0" dy="18" stdDeviation="16" flood-color="#0F172A" flood-opacity=".18"/>
      <feDropShadow dx="0" dy="6" stdDeviation="6" flood-color="#009F79" flood-opacity=".16"/>
    </filter>
    <linearGradient id="cream" x1="122" y1="98" x2="292" y2="318" gradientUnits="userSpaceOnUse">
      <stop stop-color="#FFF8E7"/>
      <stop offset=".48" stop-color="#F7DEC1"/>
      <stop offset="1" stop-color="#E9BC90"/>
    </linearGradient>
    <linearGradient id="green" x1="132" y1="163" x2="306" y2="260" gradientUnits="userSpaceOnUse">
      <stop stop-color="#21C299"/>
      <stop offset="1" stop-color="#007A5D"/>
    </linearGradient>
    <linearGradient id="chocolate" x1="124" y1="197" x2="308" y2="318" gradientUnits="userSpaceOnUse">
      <stop stop-color="#8A4F34"/>
      <stop offset="1" stop-color="#4B251A"/>
    </linearGradient>
    <radialGradient id="highlight" cx="0" cy="0" r="1" gradientUnits="userSpaceOnUse" gradientTransform="translate(160 110) rotate(45) scale(122 96)">
      <stop stop-color="#FFFFFF" stop-opacity=".82"/>
      <stop offset="1" stop-color="#FFFFFF" stop-opacity="0"/>
    </radialGradient>
  </defs>
  <g filter="url(#shadow)">
    <path d="M209 63c19 0 38 29 38 48 0 20-17 34-38 34s-38-14-38-34c0-19 19-48 38-48Z" fill="#FFF5D9"/>
    <path d="M209 70c7 13 10 25 7 36-3 11-15 15-26 10 2 13 11 22 20 22 17 0 30-10 30-25 0-15-14-43-31-43Z" fill="#F2C37C" opacity=".65"/>
    <rect x="124" y="122" width="171" height="77" rx="28" fill="url(#cream)"/>
    <path d="M124 159c19 12 29-12 47 0s30 12 48 0 31-12 49 0 20 11 27 6v35H124v-41Z" fill="#FFFFFF" opacity=".92"/>
    <rect x="103" y="185" width="214" height="86" rx="31" fill="url(#green)"/>
    <path d="M103 224c26 15 34-14 58 0s39 14 62 0 41-14 65 0c13 8 22 8 29 4v44H103v-48Z" fill="#F7FFF9" opacity=".95"/>
    <rect x="83" y="251" width="254" height="83" rx="34" fill="url(#chocolate)"/>
    <path d="M86 285c28 18 40-15 68 1 28 16 48 16 76 0s51-17 80 0c13 7 21 8 27 5v43H83v-49h3Z" fill="#F8E6C9"/>
    <path d="M135 136c22-21 94-29 136 2" stroke="url(#highlight)" stroke-width="18" stroke-linecap="round"/>
    <circle cx="290" cy="238" r="12" fill="#D4A843"/>
    <circle cx="128" cy="270" r="10" fill="#FFF7E6"/>
    <circle cx="241" cy="167" r="9" fill="#009F79"/>
  </g>
</svg>
