<svg width="400" height="400" viewBox="0 0 400 400" fill="none" xmlns="http://www.w3.org/2000/svg">
  <defs>
    <filter id="shadow" x="56" y="52" width="292" height="296" filterUnits="userSpaceOnUse" color-interpolation-filters="sRGB">
      <feDropShadow dx="0" dy="18" stdDeviation="15" flood-color="#0F172A" flood-opacity=".16"/>
      <feDropShadow dx="0" dy="8" stdDeviation="8" flood-color="#009F79" flood-opacity=".14"/>
    </filter>
    <linearGradient id="pink" x1="116" y1="90" x2="278" y2="219" gradientUnits="userSpaceOnUse">
      <stop stop-color="#FFE0E9"/>
      <stop offset="1" stop-color="#D99AB4"/>
    </linearGradient>
    <linearGradient id="cream" x1="98" y1="160" x2="306" y2="252" gradientUnits="userSpaceOnUse">
      <stop stop-color="#FFF8E8"/>
      <stop offset="1" stop-color="#E8C894"/>
    </linearGradient>
    <linearGradient id="green" x1="111" y1="221" x2="292" y2="321" gradientUnits="userSpaceOnUse">
      <stop stop-color="#37C9A4"/>
      <stop offset="1" stop-color="#007A5D"/>
    </linearGradient>
  </defs>
  <g filter="url(#shadow)">
    <ellipse cx="202" cy="130" rx="92" ry="54" fill="url(#pink)"/>
    <path d="M110 133c23 26 159 27 184-1 6 19-8 42-33 50H143c-28-9-40-31-33-49Z" fill="#CA7FA0"/>
    <path d="M127 130c23-24 128-35 154 1" stroke="#FFFFFF" stroke-opacity=".58" stroke-width="14" stroke-linecap="round"/>
    <ellipse cx="202" cy="204" rx="111" ry="59" fill="url(#cream)"/>
    <path d="M91 207c29 30 190 31 222 0 4 23-14 48-46 57H138c-31-9-50-34-47-57Z" fill="#D8AB6C"/>
    <path d="M123 203c37-27 123-34 160-1" stroke="#FFFFFF" stroke-opacity=".55" stroke-width="15" stroke-linecap="round"/>
    <ellipse cx="202" cy="279" rx="96" ry="55" fill="url(#green)"/>
    <path d="M107 282c30 27 161 28 190-1 4 22-13 45-40 54H147c-29-9-45-31-40-53Z" fill="#006E55"/>
    <path d="M128 278c31-24 116-30 148-1" stroke="#FFFFFF" stroke-opacity=".34" stroke-width="14" stroke-linecap="round"/>
    <circle cx="281" cy="111" r="9" fill="#D4A843"/>
    <circle cx="117" cy="220" r="8" fill="#009F79"/>
    <circle cx="272" cy="291" r="7" fill="#FFF7E6"/>
  </g>
</svg>
