<svg width="1800" height="1200" viewBox="0 0 1800 1200" fill="none" xmlns="http://www.w3.org/2000/svg">
  <defs>
    <filter id="blur" x="-180" y="-120" width="2160" height="1440" filterUnits="userSpaceOnUse" color-interpolation-filters="sRGB">
      <feGaussianBlur stdDeviation="26"/>
    </filter>
    <radialGradient id="light" cx="0" cy="0" r="1" gradientUnits="userSpaceOnUse" gradientTransform="translate(1260 210) rotate(127) scale(1070 730)">
      <stop stop-color="#FFFFFF"/>
      <stop offset=".43" stop-color="#F9E8C7"/>
      <stop offset="1" stop-color="#547A67"/>
    </radialGradient>
    <linearGradient id="table" x1="97" y1="769" x2="1668" y2="1140" gradientUnits="userSpaceOnUse">
      <stop stop-color="#6B4A32"/>
      <stop offset=".51" stop-color="#B88750"/>
      <stop offset="1" stop-color="#3D2A22"/>
    </linearGradient>
  </defs>
  <rect width="1800" height="1200" fill="url(#light)"/>
  <g filter="url(#blur)" opacity=".78">
    <rect x="0" y="720" width="1800" height="480" fill="url(#table)"/>
    <ellipse cx="418" cy="650" rx="230" ry="88" fill="#FFF4DC"/>
    <ellipse cx="420" cy="603" rx="174" ry="62" fill="#7A4029"/>
    <ellipse cx="420" cy="558" rx="150" ry="52" fill="#F6D2A5"/>
    <rect x="294" y="517" width="252" height="64" rx="29" fill="#FFF7E7"/>
    <ellipse cx="1295" cy="650" rx="270" ry="95" fill="#FFF5E4"/>
    <ellipse cx="1296" cy="598" rx="214" ry="68" fill="#009F79"/>
    <ellipse cx="1296" cy="553" rx="175" ry="56" fill="#F1D7A5"/>
    <rect x="1112" y="495" width="368" height="78" rx="34" fill="#FAE4C0"/>
    <ellipse cx="885" cy="730" rx="190" ry="80" fill="#EBCB91"/>
    <ellipse cx="884" cy="690" rx="145" ry="54" fill="#A7653E"/>
    <rect x="742" y="637" width="284" height="62" rx="31" fill="#FFF4E0"/>
    <circle cx="210" cy="168" r="54" fill="#FFF9E8" opacity=".78"/>
    <circle cx="1495" cy="166" r="70" fill="#FFF7DD" opacity=".72"/>
    <circle cx="1580" cy="392" r="36" fill="#D4A843" opacity=".5"/>
    <circle cx="750" cy="268" r="52" fill="#FFFFFF" opacity=".58"/>
    <circle cx="1040" cy="188" r="40" fill="#009F79" opacity=".34"/>
  </g>
  <rect width="1800" height="1200" fill="#F8FBF9" opacity=".42"/>
  <rect width="1800" height="1200" fill="url(#light)" opacity=".18"/>
</svg>
